
<svg xmlns="http://www.w3.org/2000/svg"  >
  <path d="M 100,0 L 99,1 L 96,1 L 95,2 L 93,2 L 92,3 L 91,3 L 90,4 L 89,4 L 88,5 L 87,5 L 86,6 L 85,6 L 77,14 L 77,15 L 76,16 L 76,17 L 75,18 L 75,19 L 74,20 L 74,22 L 73,23 L 73,38 L 74,39 L 74,42 L 73,43 L 73,47 L 72,48 L 72,49 L 71,50 L 71,60 L 72,61 L 72,62 L 74,64 L 74,65 L 76,67 L 76,68 L 77,69 L 77,70 L 78,71 L 78,72 L 79,73 L 79,74 L 80,75 L 80,77 L 81,78 L 81,80 L 82,81 L 82,82 L 83,83 L 83,84 L 84,85 L 84,87 L 85,88 L 85,98 L 84,99 L 84,101 L 83,102 L 83,103 L 81,105 L 81,106 L 76,111 L 75,111 L 73,113 L 72,113 L 70,115 L 69,115 L 68,116 L 67,116 L 66,117 L 65,117 L 64,118 L 63,118 L 62,119 L 60,119 L 59,120 L 58,120 L 57,121 L 56,121 L 55,122 L 53,122 L 52,123 L 51,123 L 50,124 L 48,124 L 47,125 L 46,125 L 45,126 L 43,126 L 42,127 L 41,127 L 40,128 L 38,128 L 37,129 L 35,129 L 34,130 L 33,130 L 32,131 L 31,131 L 30,132 L 29,132 L 27,134 L 26,134 L 20,140 L 20,141 L 19,142 L 19,143 L 18,144 L 18,145 L 17,146 L 17,148 L 16,149 L 16,153 L 15,154 L 15,160 L 14,161 L 200,157 L 199,156 L 199,153 L 198,152 L 198,150 L 197,149 L 197,147 L 196,146 L 196,145 L 195,144 L 195,143 L 193,141 L 193,140 L 188,135 L 187,135 L 185,133 L 184,133 L 182,131 L 180,131 L 179,130 L 178,130 L 177,129 L 175,129 L 174,128 L 172,128 L 171,127 L 170,127 L 169,126 L 167,126 L 166,125 L 164,125 L 163,124 L 161,124 L 160,123 L 159,123 L 158,122 L 156,122 L 155,121 L 154,121 L 153,120 L 152,120 L 151,119 L 150,119 L 149,118 L 147,118 L 146,117 L 145,117 L 144,116 L 143,116 L 141,114 L 140,114 L 132,106 L 132,105 L 131,104 L 131,103 L 130,102 L 130,101 L 129,100 L 129,96 L 128,95 L 128,91 L 129,90 L 129,87 L 130,86 L 130,84 L 131,83 L 131,82 L 132,81 L 132,80 L 133,79 L 133,76 L 134,75 L 134,73 L 135,72 L 135,71 L 136,70 L 136,69 L 138,67 L 138,66 L 139,65 L 139,64 L 140,63 L 140,61 L 141,60 L 141,59 L 142,58 L 142,57 L 143,56 L 143,55 L 144,54 L 144,50 L 142,48 L 142,46 L 141,45 L 141,41 L 140,40 L 140,24 L 139,23 L 139,21 L 138,20 L 138,18 L 137,17 L 137,16 L 136,15 L 136,14 L 133,11 L 133,10 L 131,8 L 130,8 L 127,5 L 126,5 L 125,4 L 124,4 L 123,3 L 122,3 L 121,2 L 119,2 L 118,1 L 115,1 L 114,0 Z" fill="black" stroke="black"/>
</svg>
