
<svg xmlns="http://www.w3.org/2000/svg">
  <path d="M 47,427 L 48,428 L 48,436 L 49,437 L 49,453 L 50,454 L 50,457 L 49,458 L 49,471 L 48,472 L 48,478 L 47,479 L 47,483 L 46,484 L 46,489 L 45,490 L 45,498 L 44,499 L 44,527 L 45,528 L 45,535 L 46,536 L 46,540 L 47,541 L 47,544 L 48,545 L 48,548 L 49,549 L 49,552 L 50,553 L 50,556 L 51,557 L 51,561 L 52,562 L 52,569 L 53,570 L 53,574 L 52,575 L 52,583 L 53,584 L 53,587 L 54,588 L 54,592 L 55,593 L 55,609 L 54,610 L 54,613 L 53,614 L 53,615 L 52,616 L 52,618 L 51,619 L 51,620 L 50,621 L 50,623 L 49,624 L 49,627 L 48,628 L 48,631 L 47,632 L 47,636 L 46,637 L 46,639 L 47,640 L 47,641 L 48,642 L 48,643 L 49,644 L 50,644 L 51,645 L 59,645 L 60,646 L 77,646 L 78,645 L 79,645 L 80,644 L 81,644 L 81,643 L 82,642 L 82,621 L 83,620 L 83,614 L 84,613 L 84,609 L 85,608 L 85,605 L 86,604 L 86,601 L 87,600 L 87,597 L 88,596 L 88,593 L 89,592 L 89,585 L 88,584 L 88,583 L 87,582 L 87,581 L 86,580 L 86,579 L 85,578 L 85,577 L 84,576 L 84,560 L 85,559 L 85,551 L 86,550 L 86,542 L 87,541 L 87,534 L 88,533 L 88,517 L 89,516 L 89,492 L 90,491 L 90,483 L 91,482 L 91,477 L 92,476 L 92,473 L 93,472 L 93,469 L 94,468 L 94,464 L 95,463 L 95,454 L 96,453 L 96,441 L 97,440 L 97,429 L 98,428 L 118,423 L 119,424 L 119,429 L 120,430 L 120,436 L 121,437 L 121,443 L 122,444 L 122,449 L 123,450 L 123,456 L 124,457 L 124,462 L 125,463 L 125,469 L 126,470 L 126,477 L 127,478 L 127,487 L 128,488 L 128,499 L 129,500 L 129,522 L 130,523 L 130,549 L 131,550 L 131,559 L 132,560 L 132,576 L 131,577 L 131,580 L 130,581 L 130,586 L 129,587 L 129,591 L 130,592 L 130,596 L 131,597 L 131,600 L 132,601 L 132,606 L 133,607 L 133,614 L 134,615 L 134,619 L 135,620 L 135,623 L 136,624 L 136,636 L 137,637 L 137,642 L 138,643 L 138,644 L 140,646 L 142,646 L 143,647 L 159,647 L 160,646 L 166,646 L 167,645 L 169,645 L 171,643 L 171,642 L 172,641 L 172,637 L 171,636 L 171,633 L 170,632 L 170,628 L 169,627 L 169,625 L 168,624 L 168,622 L 167,621 L 167,619 L 166,618 L 166,616 L 165,615 L 165,613 L 164,612 L 164,609 L 163,608 L 163,603 L 164,602 L 164,600 L 165,599 L 165,598 L 166,597 L 166,596 L 167,595 L 167,592 L 166,591 L 166,589 L 165,588 L 165,571 L 166,570 L 166,566 L 167,565 L 167,561 L 168,560 L 168,555 L 169,554 L 169,549 L 170,548 L 170,542 L 171,541 L 171,534 L 172,533 L 172,522 L 173,521 L 173,504 L 172,503 L 172,494 L 171,493 L 171,488 L 170,487 L 170,484 L 169,483 L 169,478 L 168,477 L 168,471 L 167,470 L 167,460 L 166,459 L 166,442 L 167,441 L 167,429 L 168,428 Z" fill="black" stroke="black"/>
</svg>
