
<svg xmlns="http://www.w3.org/2000/svg">
  <path d="M 14,167 L 13,168 L 13,174 L 12,175 L 12,182 L 11,183 L 11,190 L 10,191 L 10,198 L 9,199 L 9,206 L 8,207 L 8,214 L 7,215 L 7,223 L 6,224 L 6,232 L 5,233 L 5,241 L 4,242 L 4,248 L 3,249 L 3,254 L 2,255 L 2,261 L 1,262 L 1,299 L 2,300 L 2,347 L 1,348 L 1,358 L 0,359 L 1,360 L 1,364 L 2,365 L 2,366 L 7,371 L 8,371 L 9,372 L 10,372 L 11,373 L 13,373 L 14,374 L 15,374 L 16,375 L 20,375 L 21,376 L 25,376 L 26,377 L 30,377 L 31,376 L 32,376 L 33,375 L 33,367 L 29,363 L 28,363 L 22,357 L 22,356 L 21,355 L 21,352 L 23,350 L 24,350 L 25,351 L 25,352 L 27,354 L 27,355 L 29,357 L 29,358 L 31,360 L 31,361 L 33,361 L 34,360 L 34,357 L 33,356 L 33,352 L 32,351 L 32,347 L 31,346 L 31,342 L 30,341 L 30,339 L 29,338 L 29,336 L 28,335 L 28,333 L 27,332 L 27,331 L 26,330 L 26,329 L 25,328 L 25,326 L 24,325 L 24,324 L 23,323 L 23,320 L 22,319 L 22,309 L 23,308 L 23,305 L 24,304 L 24,301 L 25,300 L 25,296 L 26,295 L 26,292 L 27,291 L 27,286 L 28,285 L 28,280 L 29,279 L 29,274 L 30,273 L 30,268 L 31,267 L 31,262 L 32,261 L 32,256 L 33,255 L 33,250 L 34,249 L 34,246 L 35,245 L 35,241 L 36,240 L 36,236 L 37,235 L 37,231 L 38,230 L 38,226 L 39,225 L 39,222 L 40,221 L 40,217 L 41,216 L 41,212 L 43,210 L 44,210 L 46,212 L 46,217 L 47,218 L 47,222 L 48,223 L 48,227 L 49,228 L 49,233 L 50,234 L 50,239 L 51,240 L 51,244 L 52,245 L 52,251 L 53,252 L 53,279 L 52,280 L 52,284 L 51,285 L 51,288 L 50,289 L 50,292 L 49,293 L 49,295 L 48,296 L 48,299 L 47,300 L 47,303 L 46,304 L 46,311 L 45,312 L 45,320 L 44,321 L 44,332 L 43,333 L 43,349 L 42,350 L 42,379 L 43,380 L 43,395 L 44,396 L 44,405 L 45,406 L 45,413 L 46,414 L 46,420 L 47,421 L 98,419 L 99,418 L 99,411 L 100,410 L 100,404 L 101,403 L 101,397 L 102,396 L 102,391 L 103,390 L 103,385 L 104,384 L 104,379 L 105,378 L 105,373 L 106,372 L 106,369 L 107,368 L 108,368 L 110,370 L 110,372 L 111,373 L 111,378 L 112,379 L 112,384 L 113,385 L 113,391 L 114,392 L 114,397 L 115,398 L 115,404 L 116,405 L 116,410 L 117,411 L 117,417 L 118,418 L 168,420 L 169,419 L 169,411 L 170,410 L 170,401 L 171,400 L 171,391 L 172,390 L 172,380 L 173,379 L 173,360 L 174,359 L 174,348 L 173,347 L 173,331 L 172,330 L 172,322 L 171,321 L 171,315 L 170,314 L 170,309 L 169,308 L 169,304 L 168,303 L 168,300 L 167,299 L 167,296 L 166,295 L 166,292 L 165,291 L 165,289 L 164,288 L 164,285 L 163,284 L 163,281 L 162,280 L 162,276 L 161,275 L 161,266 L 160,265 L 160,258 L 161,257 L 161,246 L 162,245 L 162,240 L 163,239 L 163,234 L 164,233 L 164,229 L 165,228 L 165,225 L 166,224 L 166,220 L 167,219 L 167,215 L 168,214 L 168,212 L 169,211 L 169,210 L 170,209 L 172,211 L 172,215 L 173,216 L 173,220 L 174,221 L 174,226 L 175,227 L 175,231 L 176,232 L 176,236 L 177,237 L 177,241 L 178,242 L 178,247 L 179,248 L 179,252 L 180,253 L 180,257 L 181,258 L 181,262 L 182,263 L 182,268 L 183,269 L 183,273 L 184,274 L 184,279 L 185,280 L 185,284 L 186,285 L 186,289 L 187,290 L 187,294 L 188,295 L 188,298 L 189,299 L 189,302 L 190,303 L 190,307 L 191,308 L 191,313 L 192,314 L 192,319 L 191,320 L 191,323 L 190,324 L 190,326 L 188,328 L 188,329 L 187,330 L 187,331 L 186,332 L 186,333 L 185,334 L 185,336 L 184,337 L 184,340 L 183,341 L 183,354 L 182,355 L 182,362 L 183,362 L 185,360 L 185,359 L 187,357 L 187,356 L 190,353 L 191,353 L 192,354 L 192,356 L 191,357 L 191,358 L 190,359 L 190,360 L 185,365 L 185,366 L 184,367 L 184,374 L 185,375 L 185,376 L 186,376 L 187,377 L 190,377 L 191,378 L 194,378 L 195,377 L 199,377 L 200,376 L 201,376 L 202,375 L 203,375 L 204,374 L 205,374 L 210,369 L 210,368 L 211,367 L 211,366 L 212,365 L 212,364 L 213,363 L 213,359 L 214,358 L 214,350 L 213,349 L 213,311 L 212,310 L 212,257 L 211,256 L 211,243 L 210,242 L 210,239 L 209,238 L 209,234 L 208,233 L 208,230 L 207,229 L 207,223 L 206,222 L 206,214 L 205,213 L 205,204 L 204,203 L 204,195 L 203,194 L 203,185 L 202,184 L 202,175 L 201,174 L 201,166 L 200,165 Z" fill="black" stroke="black"/>
</svg>
